<?xml version="1.0" encoding="UTF-8"?>
<svg id="Layer_2" data-name="Layer 2" xmlns="http://www.w3.org/2000/svg" viewBox="0 0 36.76 49.07">
  <g id="Layer_1-2" data-name="Layer 1">
    <g>
      <path d="M0,26.18c0-5.58,0-11.16,0-16.74,0-3.98,2.09-6.07,6.07-6.07,2.07,0,4.15-.02,6.22.01.62,0,1.01-.15,1.37-.71,2.38-3.6,7.06-3.54,9.52.06.22.32.76.6,1.15.61,2.26.06,4.52.01,6.78.03,3.36.03,5.63,2.27,5.63,5.61.02,11.46.01,22.92,0,34.38,0,3.32-2.28,5.66-5.6,5.67-8.52.04-17.04.04-25.56,0-3.35-.02-5.57-2.31-5.58-5.67-.03-5.73,0-11.46,0-17.19ZM9.17,5.8c-1.07,0-2.08,0-3.09,0-2.58,0-3.64,1.07-3.64,3.64,0,11.16,0,22.32,0,33.47,0,2.57,1.09,3.67,3.63,3.67,8.18,0,16.36,0,24.54,0,2.58,0,3.66-1.07,3.66-3.62,0-7.01,0-14.02,0-21.03,0-4.3,0-8.59,0-12.89,0-1.67-.81-2.94-2.22-3.1-1.47-.17-2.98-.04-4.52-.04-.03.48-.04.89-.07,1.3-.23,2.76-2.21,4.89-4.93,5.01-2.75.12-5.51.12-8.25,0-2.64-.11-4.63-2.11-4.94-4.74-.06-.52-.1-1.03-.15-1.67ZM11.82,5.88c-.26,2.58.87,3.9,3.26,3.91,2.22.01,4.45.02,6.67,0,2.37-.02,3.55-1.48,3.12-3.99-.38,0-.79-.03-1.19,0-1.26.13-2.14-.17-2.56-1.57-.32-1.08-1.31-1.61-2.45-1.72-1.24-.12-2.45.3-2.85,1.41-.64,1.78-1.81,2.09-3.41,1.89-.18-.02-.36.04-.59.07Z" style="fill: #2196F3; stroke-width: 0px;"/>
      <path d="M16.16,30.73c2.73-2.67,5.13-5,7.52-7.34,1.15-1.12,1.85-1.32,2.48-.69.65.65.47,1.24-.75,2.43-2.53,2.48-5.05,4.96-7.59,7.43-1.2,1.17-1.66,1.16-2.82.03-1.35-1.31-2.69-2.64-4.04-3.94-.63-.61-1.08-1.29-.36-2.04.71-.74,1.45-.4,2.05.25,1.15,1.25,2.28,2.51,3.52,3.88Z" style="fill: #2196F3; stroke-width: 0px;"/>
    </g>
  </g>
</svg>