<?xml version="1.0" encoding="UTF-8"?>
<svg id="Layer_2" data-name="Layer 2" xmlns="http://www.w3.org/2000/svg" viewBox="0 0 47.08 46.84">
  <g id="Layer_1-2" data-name="Layer 1">
    <path d="M42.08,27.8c0,.38,0,.75,0,1.11,0,4.11,0,8.22,0,12.33,0,3.46-2.05,5.54-5.49,5.57-2.21.02-4.42.01-6.63,0-1.42,0-1.89-.49-1.9-1.9,0-3.36,0-6.73,0-10.09,0-1.87-.87-2.73-2.74-2.75-1.19,0-2.38-.01-3.57,0-1.83.02-2.69.88-2.7,2.68,0,3.36,0,6.73,0,10.09,0,1.5-.45,1.96-1.94,1.96-2.21.01-4.42.03-6.63,0-3.39-.04-5.45-2.13-5.45-5.51,0-4.11,0-8.22,0-12.33,0-.37,0-.74,0-1.17-.28-.04-.5-.08-.73-.1-1.91-.13-3.31-1.01-3.99-2.82-.67-1.8-.22-3.4,1.14-4.75,5.18-5.15,10.35-10.31,15.53-15.46,1.11-1.1,2.25-2.17,3.31-3.32,1.7-1.83,4.78-1.78,6.56,0,6.2,6.25,12.44,12.45,18.7,18.64,1.44,1.42,1.9,3.07,1.23,4.92-.69,1.89-2.21,2.76-4.21,2.8-.13,0-.26.04-.49.08ZM16.24,44.05c0-.5,0-.86,0-1.23,0-2.72-.01-5.44,0-8.15.02-3.17,2.14-5.28,5.32-5.31,1.29-.01,2.58,0,3.87,0,3.32.02,5.4,2.1,5.42,5.43.01,2.72,0,5.44,0,8.15,0,.36.04.71.07,1.12,1.92,0,3.72,0,5.52,0,2.02,0,2.82-.81,2.82-2.85,0-4.69,0-9.38,0-14.06,0-1.85.38-2.23,2.18-2.24.48,0,.95.03,1.43-.02,1.29-.13,1.87-1.45,1.1-2.49-.22-.3-.51-.55-.77-.81-6.06-6.04-12.13-12.08-18.19-18.12-1.09-1.08-1.85-1.07-2.95.02-4.24,4.22-8.47,8.44-12.71,12.66-1.97,1.97-3.94,3.94-5.92,5.9-.56.55-.86,1.15-.54,1.92.32.77.97.98,1.75.95.51-.02,1.02-.02,1.53,0,1.1.04,1.62.55,1.65,1.64.03.95,0,1.9,0,2.85,0,4.04,0,8.09,0,12.13,0,1.48.79,2.46,2.12,2.5,2.03.06,4.07.02,6.29.02Z" style="fill: #2196F3; stroke-width: 0px;"/>
  </g>
</svg>