<?xml version="1.0" encoding="UTF-8"?>
<svg id="Layer_2" data-name="Layer 2" xmlns="http://www.w3.org/2000/svg" viewBox="0 0 47.41 47.43">
  <g id="Layer_1-2" data-name="Layer 1">
    <g>
      <path d="M15.66,40.33C5.91,39.53-.03,31.58,0,23.66.03,15.79,5.94,7.9,15.78,7.09c0-1.35,0-2.72,0-4.09C15.79.88,16.66,0,18.77,0c6.12,0,12.24-.02,18.36.03.61,0,1.36.31,1.8.73,2.62,2.53,5.2,5.11,7.73,7.72.4.42.72,1.12.72,1.69.04,11.44.03,22.88.03,34.32,0,2.01-.92,2.92-2.95,2.92-8.56,0-17.12,0-25.68,0-2.11,0-2.98-.88-2.99-2.99,0-1.27-.01-2.55-.03-3.82,0-.07-.04-.14-.09-.28ZM17.41,40.27c0,1.39,0,2.66,0,3.92,0,1.53.09,1.63,1.59,1.63,8.42,0,16.83,0,25.25,0,1.42,0,1.56-.14,1.56-1.57,0-10.93,0-21.86,0-32.79,0-.38-.04-.76-.07-1.19-1.98,0-3.84,0-5.7,0-2.09,0-2.9-.81-2.91-2.91,0-1.88,0-3.76,0-5.7-.44-.03-.76-.06-1.09-.06-5.72,0-11.44,0-17.16,0-1.35,0-1.48.13-1.48,1.52,0,6.23,0,12.46,0,18.69,0,.35.04.7.07,1.12.49,0,.88,0,1.28,0,4.26,0,8.52,0,12.79,0,1.55,0,1.75.18,1.63,1.68-.39,4.81-2.35,8.82-6.09,11.91-2.75,2.27-5.94,3.48-9.67,3.74ZM6.61,34.78c4.28,4.19,11.6,5.1,16.94,2.23,4.76-2.55,8.56-8.58,7.83-12.45-.1-.02-.2-.06-.31-.06-4.52,0-9.04-.02-13.55.02-.37,0-.82.25-1.11.53-1.21,1.15-2.38,2.36-3.57,3.54-2.06,2.05-4.13,4.1-6.24,6.19ZM15.73,8.85c-5.39-.18-11.1,4.07-13.25,9.83-2.24,6.01.12,12.29,3.02,14.89.09-.05.2-.09.27-.16,3.19-3.19,6.4-6.36,9.55-9.59.3-.31.44-.9.44-1.36.03-4.18.02-8.37.02-12.55,0-.35-.03-.71-.05-1.05ZM38.69,3.08c0,1.5,0,3.03,0,4.56,0,.64.25,1.07.94,1.08,1.59.02,3.17,0,4.72,0-1.9-1.89-3.76-3.75-5.66-5.64Z" style="fill: #2196F3; stroke-width: 0px;"/>
      <path d="M18.98,12.63c0-2.47.02-4.95-.01-7.42-.01-.96.4-1.27,1.32-1.26,8.47.1,15.98,7.65,16.03,16.09,0,1.01-.38,1.35-1.35,1.34-4.88-.02-9.75-.03-14.63,0-1.06,0-1.39-.43-1.37-1.44.05-2.44.02-4.88.02-7.31ZM34.66,19.69c-.19-7.4-7.97-15.04-14.07-13.9v13.9h14.07Z" style="fill: #2196F3; stroke-width: 0px;"/>
      <path d="M37.15,44.22c-3.92.01-7.12-3.12-7.16-7.02-.03-3.91,3.23-7.19,7.14-7.18,3.89,0,7.07,3.21,7.07,7.11,0,3.97-3.09,7.08-7.05,7.09ZM37.24,31.64c-3.08-.06-5.55,2.28-5.62,5.34-.07,3.07,2.29,5.58,5.31,5.66,3.11.08,5.64-2.32,5.69-5.4.05-3.06-2.32-5.53-5.38-5.59Z" style="fill: #2196F3; stroke-width: 0px;"/>
      <path d="M44.15,23v1.44h-6.18v-1.44h6.18Z" style="fill: #2196F3; stroke-width: 0px;"/>
      <path d="M37.97,15v-1.47h6.18v1.47h-6.18Z" style="fill: #2196F3; stroke-width: 0px;"/>
      <path d="M44.14,18.22v1.44h-6.18v-1.44h6.18Z" style="fill: #2196F3; stroke-width: 0px;"/>
      <path d="M35.7,38.46c1.34-1.47,2.6-2.86,3.96-4.36.43.52.72.88,1.11,1.36-1.52,1.49-3.05,3.04-4.66,4.5-.23.21-.98.11-1.3-.11-.79-.57-1.47-1.29-2.38-2.12.6-.35,1-.59,1.51-.88.37.33.94.86,1.75,1.6Z" style="fill: #2196F3; stroke-width: 0px;"/>
    </g>
  </g>
</svg>