<?xml version="1.0" encoding="UTF-8"?>
<svg id="Layer_2" data-name="Layer 2" xmlns="http://www.w3.org/2000/svg" viewBox="0 0 58.94 37.01">
  <g id="Layer_1-2" data-name="Layer 1">
    <g>
      <path d="M29.47,37c-7.81,0-15.63,0-23.44,0-3.95,0-6.02-2.07-6.03-6.01C0,22.64,0,14.3,0,5.95.01,2.1,2.1,0,5.95,0c15.67,0,31.35,0,47.02,0,3.86,0,5.95,2.09,5.95,5.94.01,8.4.01,16.79,0,25.19,0,3.76-2.12,5.87-5.87,5.87-7.86.01-15.72,0-23.58,0ZM29.44,34.88c7.81,0,15.63,0,23.44,0,2.83,0,3.89-1.06,3.89-3.85,0-8.35,0-16.69,0-25.04,0-2.79-1.07-3.85-3.9-3.85-15.58,0-31.15,0-46.73,0-2.92,0-3.96,1.04-3.97,3.93,0,8.25,0,16.5,0,24.75,0,3.08,1,4.07,4.12,4.07,7.72,0,15.43,0,23.15,0Z" style="fill: #2196F3; stroke-width: 0px;"/>
      <path d="M18.55,17.74c1.31,1.35,2.68,2.52,3.76,3.91,1.36,1.75,1.7,3.88,1.53,6.08-.1,1.32-.8,2.12-2.11,2.14-4.9.04-9.81.05-14.71,0-1.37-.01-2.06-.84-2.11-2.28-.15-3.97,1.35-7.08,4.81-9.16.2-.12.4-.25.75-.48-1.76-1.65-2.69-3.66-2.03-5.92.38-1.32,1.22-2.68,2.23-3.61,2.16-1.97,5.83-1.69,7.85.31,2.57,2.54,2.55,5.91.03,9.01ZM14.22,27.77c2.03,0,4.07-.08,6.1.03,1.31.07,1.54-.47,1.45-1.62-.32-3.84-3.71-6.95-7.54-6.84-3.9.11-7.09,3.26-7.29,7.13-.05,1.04.31,1.35,1.32,1.32,1.98-.06,3.97-.02,5.96-.02ZM14.42,9.3c-2.24-.02-4.02,1.7-4.02,3.9,0,2.16,1.83,3.98,4,3.96,2.1-.02,3.9-1.78,3.95-3.87.05-2.19-1.71-3.97-3.93-3.99Z" style="fill: #2196F3; stroke-width: 0px;"/>
      <path d="M47.57,5.84c1.36,0,2.72-.03,4.08,0,1.47.04,2.24.78,2.29,2.26.05,1.89.05,3.79,0,5.68-.04,1.48-.79,2.21-2.31,2.23-2.77.04-5.53.04-8.3,0-1.53-.03-2.29-.84-2.32-2.39-.03-1.75-.03-3.49,0-5.24.03-1.72.8-2.5,2.49-2.53,1.36-.03,2.72,0,4.08,0ZM51.72,13.84v-5.77h-8.49v5.77h8.49Z" style="fill: #2196F3; stroke-width: 0px;"/>
      <path d="M41.06,23.78c-3.39,0-6.78,0-10.18,0-.29,0-.58,0-.87,0-.79,0-1.63-.17-1.47-1.11.07-.42.88-.9,1.43-1,.89-.17,1.83-.05,2.75-.05,6.25,0,12.5,0,18.75,0,.39,0,.85-.13,1.15.04.48.26.84.72,1.26,1.09-.4.34-.76.75-1.2,1-.26.14-.66.04-1,.04-3.54,0-7.08,0-10.61,0Z" style="fill: #2196F3; stroke-width: 0px;"/>
      <path d="M41.14,29.9c-3.64,0-7.28,0-10.92,0-.79,0-1.73.04-1.71-1.06.02-1.07.94-1.06,1.73-1.06,7.28,0,14.56,0,21.84,0,.15,0,.34-.06.43.02.47.36.92.76,1.37,1.15-.46.32-.92.91-1.39.92-3.78.08-7.57.04-11.36.04h0Z" style="fill: #2196F3; stroke-width: 0px;"/>
      <path d="M33.11,9.32c-1.26,0-2.53.09-3.78-.05-.48-.05-.9-.64-1.35-.98.43-.36.85-1,1.29-1.02,2.61-.1,5.24-.1,7.85,0,.43.02.84.67,1.25,1.03-.45.34-.87.92-1.34.97-1.29.14-2.61.05-3.92.05Z" style="fill: #2196F3; stroke-width: 0px;"/>
      <path d="M33.15,12.58c1.31,0,2.62-.09,3.92.05.47.05.88.65,1.31,1-.43.35-.85.99-1.29,1-2.61.1-5.23.1-7.84,0-.43-.02-.84-.69-1.26-1.06.41-.33.8-.9,1.24-.94,1.3-.13,2.61-.05,3.92-.05Z" style="fill: #2196F3; stroke-width: 0px;"/>
    </g>
  </g>
</svg>