<?xml version="1.0" encoding="UTF-8"?>
<svg id="Layer_2" data-name="Layer 2" xmlns="http://www.w3.org/2000/svg" viewBox="0 0 43.97 57.53">
  <g id="Layer_1-2" data-name="Layer 1">
    <path d="M23.98,55.49c.05,1.84-.12,2.02-1.65,2.02-3.08,0-6.16-.04-9.24.02-1.24.02-2.19-.14-2.07-1.84-2.15,0-4.22.03-6.29,0-3.11-.05-4.66-1.61-4.74-4.71,0-.33,0-.67.05-1,.68-4.57,1.37-9.13,2.07-13.7.46-2.98,2.17-4.87,5.02-5.77.48-.15,1-.25,1.4-.52.34-.23.66-.63.78-1.02.58-1.9,2.49-1.48,3.76-2.13.39-.19,1.14.34,1.72.53-.02.13-.03.27-.05.4.54-.18,1.09-.35,1.63-.54,1.02-.37,1.29-1.26.51-1.99-1.35-1.26-2.26-2.74-2.71-4.54-.07-.28-.54-.56-.87-.66-2.7-.78-3.7-3.41-2.24-5.83.28-.46.35-1.07.43-1.62.27-1.88.2-3.87.79-5.63C13.88,2.29,18.94-.63,23.68.12c5.35.84,9.16,4.91,9.44,10.07.04.66-.05,1.34.05,1.99.13.83.28,1.7.64,2.44,1.08,2.19.04,4.74-2.36,5.36-.68.18-.85.53-1.13,1.08-.71,1.39-1.63,2.66-2.38,4.02-.29.52-.64,1.33-.43,1.72.33.6,1.1.69,1.62-.06.02-.03.06-.06.1-.08.71-.4,4.88,1.16,4.92,1.95.04.83.54.9,1.07,1.11,1.39.55,2.84.98,4.14,1.7,2.96,1.64,4.56,4.2,4.58,7.63.03,5.66,0,11.32.02,16.98,0,1.04-.41,1.5-1.49,1.49-4.54-.03-9.08.07-13.61-.07-1.21-.04-2.4-.76-3.58-1.2-.39-.15-.74-.43-1.3-.76ZM35.24,55.67c0-.58,0-1.03,0-1.48,0-3.45,0-6.91,0-10.36,0-.67-.19-1.59.88-1.6,1.02,0,.94.86.94,1.57,0,3.5,0,6.99,0,10.49,0,.44,0,.88,0,1.32h4.99c0-5.96.09-11.83-.08-17.69-.03-1.15-.87-2.42-1.64-3.39-1.7-2.13-4.31-2.6-6.79-3.41-.19.52-.34.9-.47,1.29-.52,1.49-.99,3.01-1.6,4.46-.15.37-.77.54-1.18.81-.17-.45-.42-.88-.49-1.35-.04-.29.18-.63.29-.94.68-2,1.36-3.99,2.07-6.07-.75-.29-1.38-.54-2.04-.8-3.26,5.94-6.44,11.75-9.77,17.82,1.68,0,3.01-.09,4.33.03,1.25.11,1.86-.29,2.2-1.53.53-1.92,1.23-3.8,1.97-5.65.14-.35.79-.49,1.21-.73.17.42.45.83.47,1.25.02.38-.25.78-.38,1.17-.6,1.76-1.19,3.51-1.84,5.41,2.43.15,4.35.97,5.45,3.12,1.11,2.17.61,4.23-.66,6.25h2.13ZM15.85,13.45c0,1.93-.03,3.72,0,5.5.07,3.65,2.83,6.38,6.43,6.4,3.62.02,6.4-2.66,6.49-6.33.05-1.74-.06-3.5.03-5.24.08-1.58-1.24-2.14-2.02-3.09-.07-.09-.48-.01-.66.1-3.12,1.86-6.53,2.62-10.28,2.65ZM9.53,31.77c-4.1.86-5.28,2.25-5.73,5.56-.36,2.63-.82,5.25-1.21,7.88-.28,1.85-.62,3.69-.74,5.55-.14,2.17.78,3.04,2.93,3.06,1.66.02,3.33,0,4.99,0,.35,0,.71-.06,1.13-.11-.09-1.37-.21-2.61-.23-3.85-.02-1.05-.08-1.88-1.51-1.74-.3.03-.67-.55-1-.85.33-.3.62-.69,1.01-.89.33-.16.78-.1,1.28-.15-.31-4.87-.6-9.63-.91-14.47ZM13.02,28.86c-1.47.13-1.97.7-1.75,2.06.25,1.59.23,3.23.34,4.85.41,6.3.83,12.61,1.2,18.91.05.8.31,1.08,1.12,1.05,1.45-.06,2.91-.02,4.36-.02,1.14,0,2.27,0,3.57,0-3-9.11-5.92-17.98-8.84-26.85ZM13.45,12.44c.82-.32,1.58-.89,2.32-.86,3.67.15,6.99-.85,10.07-2.77.84-.52,1.41-.47,2.04.27,1.03,1.21,2.11,2.37,3.18,3.55.97-2.51-.39-6.53-2.94-8.68-2.93-2.47-7.02-2.8-10.38-.83-3.25,1.9-4.99,5.79-4.28,9.31ZM27.67,29.18c-.05-.03-.11-.05-.16-.08-1.37,1.05-2.77,2.08-4.12,3.16-.73.59-1.35.64-2.1.03-1.06-.87-2.31-1.54-3.24-2.53-.99-1.05-1.78-.6-2.83-.07,1.5,4.53,2.98,9.02,4.57,13.84,2.75-5.02,5.31-9.68,7.87-14.35ZM24.91,48.25c0,1.2.15,2.3-.03,3.33-.32,1.82.76,2.72,2.02,3.54,1.26.83,2.86.73,4.1-.17,1.23-.89,1.83-2.46,1.48-3.84-.38-1.5-1.63-2.73-3.12-2.84-1.4-.1-2.82-.02-4.45-.02ZM25.56,26.97h-6.4c-.51,1.99,1.51,2.27,2.51,3.24.23.22.95.31,1.13.13,1.07-1.03,3.17-1.3,2.76-3.37ZM13.94,18.26v-3.69c-1.19.21-1.69.89-1.66,1.92.03.98.55,1.6,1.66,1.77ZM30.72,18.25c1.16-.21,1.69-.87,1.66-1.9-.03-.97-.55-1.58-1.66-1.78v3.68ZM21.36,48.27c.53,1.62,1.02,3.13,1.51,4.64.05-.02.11-.04.16-.06v-4.58h-1.67Z" style="fill: #2196F3; stroke-width: 0px;"/>
  </g>
</svg>