<?xml version="1.0" encoding="UTF-8"?>
<svg id="Layer_2" data-name="Layer 2" xmlns="http://www.w3.org/2000/svg" viewBox="0 0 42.37 42.38">
  <g id="Layer_1-2" data-name="Layer 1">
    <path d="M27.58,30.55c-9.16,6.65-19.76,3.03-24.45-3.59C-1.75,20.05-.86,10.47,5.34,4.63c6.25-5.89,15.9-6.18,22.56-.73,6.31,5.17,8.75,15.23,2.64,23.63.55.56,1.12,1.14,1.7,1.71,3.07,3.07,6.14,6.14,9.21,9.2.59.59,1.03,1.23.89,2.1-.13.81-.59,1.39-1.38,1.69-.84.32-1.58.1-2.2-.48-.91-.86-1.78-1.76-2.67-2.65-2.82-2.84-5.65-5.67-8.51-8.55ZM4.22,17.02c0,7.09,5.75,12.84,12.84,12.83,7.06,0,12.77-5.71,12.78-12.78.02-7.05-5.69-12.8-12.74-12.83-7.1-.02-12.88,5.71-12.89,12.78Z" style="fill: #2196F3; stroke-width: 0px;"/>
  </g>
</svg>