<?xml version="1.0" encoding="UTF-8"?>
<svg id="Layer_2" data-name="Layer 2" xmlns="http://www.w3.org/2000/svg" viewBox="0 0 50.11 49.98">
  <g id="Layer_1-2" data-name="Layer 1">
    <g>
      <path d="M24.23,20.08c-1.89,0-3.61-.03-5.34.01-.99.02-1.37-.4-1.36-1.38.02-5.77.02-11.55,0-17.32,0-.99.37-1.39,1.36-1.38,2.42.03,4.85-.02,7.27.04.48.01,1.06.23,1.41.56,1.49,1.39,2.94,2.83,4.32,4.33.37.4.63,1.06.63,1.61.05,4,.03,8,.03,12.01,0,1.36-.17,1.52-1.54,1.53-1.58,0-3.16,0-4.73.01-.08,0-.15.02-.42.07,0,.6,0,1.23,0,1.87,0,2.39.04,4.77-.02,7.16-.02.86.28,1.18,1.08,1.4,5.88,1.68,11.74,3.43,17.62,5.09,1.04.3,1.44.78,1.39,1.86-.07,1.77-.05,3.54,0,5.31.02.82-.28,1.27-1.09,1.5-6.39,1.84-12.77,3.73-19.17,5.56-.44.13-.99.08-1.44-.05-6.28-1.81-12.55-3.67-18.83-5.47-.89-.26-1.27-.67-1.24-1.62.06-1.81.05-3.62,0-5.43-.03-.94.36-1.36,1.25-1.61,5.92-1.69,11.81-3.44,17.73-5.12.86-.24,1.13-.61,1.11-1.5-.06-2.96-.02-5.91-.02-9.03ZM24.17,32.03c-5.32,1.55-10.51,3.07-15.7,4.58,5.42,1.82,10.8,3.4,16.19,4.94.4.11.91-.01,1.34-.14,4.84-1.39,9.67-2.81,14.5-4.22.38-.11.76-.25,1.14-.37,0-.07,0-.15,0-.22-5.21-1.52-10.42-3.04-15.65-4.56v4.2c.68-.64,1.24-1.16,1.75-1.64.45.34.84.64,1.34,1.02-1.24,1.21-2.3,2.31-3.45,3.32-.22.19-.88.21-1.09.02-1.16-1.03-2.25-2.16-3.3-3.18.4-.54.69-.93,1.01-1.35.7.67,1.25,1.19,1.93,1.85v-4.25ZM19.23,18.32h11.59V6.7c-1.28,0-2.47-.03-3.66,0-.94.03-1.32-.39-1.3-1.32.03-1.18,0-2.37,0-3.59h-6.63v16.51ZM24.23,48.1c0-1.43-.05-2.7.02-3.96.04-.76-.25-1.04-.96-1.25-5.43-1.55-10.85-3.15-16.27-4.73-.32-.09-.65-.13-1.13-.23,0,1.38.03,2.64-.01,3.9-.03.7.23,1.01.91,1.2,3.51,1,7.01,2.05,10.51,3.08,2.24.66,4.49,1.29,6.94,2ZM25.88,47.94c.19.05.23.08.26.07,5.83-1.69,11.66-3.37,17.48-5.08.23-.07.56-.38.56-.59.05-1.44.03-2.88.03-4.47-6.07,1.77-11.94,3.46-17.79,5.2-.23.07-.51.46-.52.72-.05,1.38-.02,2.76-.02,4.17ZM29.7,5.01c-.81-.77-1.39-1.32-2.07-1.97v1.97h2.07Z" style="fill: #2196F3; stroke-width: 0px;"/>
      <path d="M17.55,28c.77-.73,1.32-1.26,1.93-1.83.43.38.79.71,1.26,1.13-1.21,1.18-2.25,2.27-3.38,3.24-.26.22-1.01.23-1.26.02-1.15-.96-2.2-2.03-3.45-3.23.52-.43.89-.74,1.34-1.11.57.53,1.12,1.04,1.69,1.57.62-1.87-.44-3.45-2.33-3.53-.54-.02-1.08,0-1.62,0-3.07,0-4.43-1.09-5.12-4.16-1.66,0-3.34,0-5.03,0-1.37,0-1.56-.18-1.57-1.51C.01,12.88.03,7.18,0,1.49,0,.39.41-.02,1.5,0c2.38.05,4.77-.02,7.15.04.48.01,1.07.22,1.42.55,1.49,1.39,2.93,2.83,4.32,4.33.35.38.6,1,.61,1.51.05,4.08,0,8.16.04,12.23,0,1.04-.37,1.46-1.42,1.43-1.72-.05-3.44-.01-5.17-.01.17,1.54.98,2.38,2.35,2.47.77.06,1.54.01,2.31.02,2.72.03,4.38,1.66,4.44,4.37,0,.26,0,.52,0,1.05ZM13.31,18.36V6.7c-.84,0-1.6,0-2.36,0q-2.59,0-2.59-2.54c0-.79,0-1.58,0-2.35H1.82v16.55h11.49ZM10.14,4.97h2.01c-.73-.69-1.29-1.22-2.01-1.91v1.91Z" style="fill: #2196F3; stroke-width: 0px;"/>
      <path d="M36.09,26.25c.49.38.85.66,1.41,1.08-1.25,1.18-2.31,2.24-3.46,3.19-.26.22-1.01.24-1.26.03-1.13-.98-2.16-2.07-3.4-3.3.48-.36.87-.65,1.33-1,.53.48,1.1,1.01,1.72,1.57.71-4.6,1.47-5.24,6.16-5.26,1.97-.01,2.82-.66,3.09-2.49-1.73,0-3.45-.03-5.16.01-1.02.03-1.46-.33-1.45-1.4.03-5.77.03-11.54,0-17.31,0-.99.37-1.39,1.36-1.37,2.42.03,4.85-.02,7.27.04.48.01,1.06.25,1.41.57,1.51,1.42,2.98,2.89,4.4,4.4.33.35.56.93.56,1.41.04,4.08,0,8.15.04,12.23,0,1.04-.4,1.46-1.44,1.43-1.69-.05-3.38-.01-5.12-.01-.18.57-.3,1.12-.52,1.63-.71,1.59-1.98,2.4-3.7,2.52-.65.04-1.31.01-1.96.01-2.39,0-3.31,1.03-3.07,3.63.65-.59,1.23-1.11,1.79-1.62ZM36.78,18.31h11.53V6.7c-1.29,0-2.48-.02-3.67,0-.88.02-1.27-.35-1.24-1.24.03-1.22,0-2.43,0-3.67h-6.63v16.51ZM45.1,5h1.72c-.53-.62-1.06-1.25-1.72-2.03v2.03Z" style="fill: #2196F3; stroke-width: 0px;"/>
      <path d="M20.92,9.97v-1.53h8.23v1.53h-8.23Z" style="fill: #2196F3; stroke-width: 0px;"/>
      <path d="M29.19,11.82v1.5h-8.23v-1.5h8.23Z" style="fill: #2196F3; stroke-width: 0px;"/>
      <path d="M24.2,5.12v1.51h-3.26v-1.51h3.26Z" style="fill: #2196F3; stroke-width: 0px;"/>
      <path d="M20.95,15.07h1.53v1.53h-1.53v-1.53Z" style="fill: #2196F3; stroke-width: 0px;"/>
      <path d="M29.28,16.63h-1.69v-1.55c.46-.02.9-.05,1.51-.08.06.52.11,1.01.18,1.63Z" style="fill: #2196F3; stroke-width: 0px;"/>
      <path d="M25.79,16.65h-1.48v-1.54h1.48v1.54Z" style="fill: #2196F3; stroke-width: 0px;"/>
      <path d="M11.67,10H3.47v-1.58h8.2v1.58Z" style="fill: #2196F3; stroke-width: 0px;"/>
      <path d="M3.46,13.3v-1.5h8.22v1.5H3.46Z" style="fill: #2196F3; stroke-width: 0px;"/>
      <path d="M3.44,16.62v-1.52h8.22v1.52H3.44Z" style="fill: #2196F3; stroke-width: 0px;"/>
      <path d="M6.65,5.15v1.5h-3.18v-1.5h3.18Z" style="fill: #2196F3; stroke-width: 0px;"/>
      <path d="M46.64,9.99h-8.22v-1.57h8.22v1.57Z" style="fill: #2196F3; stroke-width: 0px;"/>
      <path d="M38.39,13.33v-1.49h8.26v1.49h-8.26Z" style="fill: #2196F3; stroke-width: 0px;"/>
      <path d="M38.43,16.64v-1.55h8.22v1.55h-8.22Z" style="fill: #2196F3; stroke-width: 0px;"/>
      <path d="M38.42,6.61v-1.46h3.27v1.46h-3.27Z" style="fill: #2196F3; stroke-width: 0px;"/>
    </g>
  </g>
</svg>