<?xml version="1.0" encoding="UTF-8"?>
<svg id="Layer_2" data-name="Layer 2" xmlns="http://www.w3.org/2000/svg" viewBox="0 0 45.38 45.38">
  <g id="Layer_1-2" data-name="Layer 1">
    <g>
      <path d="M0,19.85c0-4.75,0-9.49,0-14.24C0,2.19,2.17,0,5.56,0c7,0,14.01,0,21.01,0,3.37,0,5.54,2.13,5.56,5.5.02,3.6.04,7.2-.03,10.8-.01.56-.34,1.32-.78,1.63-.92.65-2.01-.19-2.02-1.5-.02-3.08,0-6.15,0-9.23,0-.62.01-1.24,0-1.87-.04-1.52-.94-2.45-2.45-2.49-1.54-.04-3.08,0-4.61,0-5.47,0-10.93,0-16.4,0-2.19,0-3,.83-3,3.04,0,9.33,0,18.65,0,27.98,0,2.19.84,3.03,3.02,3.03,3.7,0,7.4-.02,11.09.02.49,0,1.11.14,1.41.45.29.3.47,1.05.29,1.38-.23.43-.84.85-1.33.91-1.2.13-2.42.04-3.63.04-2.72,0-5.43,0-8.15,0C2.18,39.69,0,37.53,0,34.18c0-4.78,0-9.56,0-14.33Z" style="fill: #2196F3; stroke-width: 0px;"/>
      <path d="M33.11,20.81c6.79,0,12.29,5.53,12.27,12.33-.02,6.78-5.56,12.28-12.36,12.25-6.74-.03-12.22-5.54-12.22-12.28,0-6.8,5.5-12.3,12.3-12.29ZM33.08,42.55c5.18,0,9.43-4.23,9.46-9.42.03-5.21-4.29-9.53-9.49-9.49-5.18.03-9.44,4.31-9.42,9.48.02,5.18,4.28,9.43,9.45,9.44Z" style="fill: #2196F3; stroke-width: 0px;"/>
      <path d="M16.03,17.95c-2.75,0-5.49,0-8.24,0-.29,0-.59.01-.88-.03-.75-.12-1.17-.57-1.2-1.32-.03-.75.38-1.23,1.1-1.41.25-.06.52-.05.78-.05,5.66,0,11.32,0,16.97,0,.16,0,.33,0,.49,0,.87.08,1.47.67,1.4,1.45-.07.84-.55,1.32-1.4,1.34-1.27.03-2.55.02-3.83.02-1.73,0-3.47,0-5.2,0Z" style="fill: #2196F3; stroke-width: 0px;"/>
      <path d="M12.29,25.54c-1.6,0-3.21,0-4.81,0-1.12,0-1.75-.52-1.78-1.39-.03-.9.59-1.45,1.7-1.45,3.27-.01,6.55-.01,9.82,0,1.05,0,1.66.53,1.68,1.38.02.88-.64,1.46-1.71,1.47-1.64.01-3.27,0-4.91,0Z" style="fill: #2196F3; stroke-width: 0px;"/>
      <path d="M11.31,10.41c-1.31,0-2.61.01-3.92,0-1.09-.01-1.73-.58-1.71-1.45.02-.85.61-1.35,1.69-1.36,2.64-.01,5.29-.01,7.93,0,1.09,0,1.75.58,1.72,1.44-.03.82-.67,1.36-1.7,1.37-1.34.02-2.68,0-4.01,0Z" style="fill: #2196F3; stroke-width: 0px;"/>
      <path d="M34.53,31.67c1.2,0,2.27,0,3.34,0,1.18.01,1.84.54,1.82,1.44-.01.9-.68,1.41-1.86,1.42-1.04.01-2.09,0-3.29,0,0,.96,0,1.86,0,2.76,0,.36.03.73-.03,1.08-.13.81-.59,1.31-1.44,1.32-.79,0-1.35-.57-1.38-1.47-.04-1.17,0-2.34,0-3.68-1.02,0-1.95,0-2.89,0-.39,0-.79.02-1.17-.07-.76-.18-1.18-.69-1.12-1.5.06-.76.54-1.21,1.27-1.26.91-.06,1.83-.08,2.75-.02.87.06,1.27-.17,1.17-1.12-.08-.74-.02-1.5-.01-2.26.01-1.19.53-1.83,1.44-1.82.89.01,1.41.68,1.42,1.86.01,1.04,0,2.09,0,3.32Z" style="fill: #2196F3; stroke-width: 0px;"/>
    </g>
  </g>
</svg>