<?xml version="1.0" encoding="UTF-8"?>
<svg id="Layer_2" data-name="Layer 2" xmlns="http://www.w3.org/2000/svg" viewBox="0 0 41.8 41.79">
  <g id="Layer_1-2" data-name="Layer 1">
    <g>
      <path d="M41.79,21c0,4.42,0,8.84,0,13.27,0,4.54-2.98,7.51-7.52,7.51-4.28,0-8.56,0-12.85,0-4.5,0-7.47-2.95-7.5-7.43,0-1.51-.02-3.02,0-4.53.02-1.3.69-1.99,1.82-1.96,1.08.03,1.66.7,1.67,1.98.02,1.61-.01,3.23.01,4.84.03,2.07,1.43,3.55,3.49,3.57,4.6.04,9.2.04,13.79,0,2.21-.02,3.55-1.5,3.55-3.83.01-7.09,0-14.18,0-21.27,0-1.97.01-3.93,0-5.9-.02-2.34-1.41-3.72-3.76-3.73-4.42-.02-8.85-.02-13.27,0-2.41,0-3.79,1.4-3.81,3.79,0,1.54,0,3.09,0,4.63-.01,1.29-.59,1.95-1.68,1.98-1.13.03-1.8-.66-1.82-1.97-.03-1.68-.05-3.37,0-5.05C14.08,2.93,17.09.04,21.11.02c4.49-.02,8.99-.02,13.48,0,4.14.02,7.17,3.05,7.2,7.19.03,4.6,0,9.2,0,13.79Z" style="fill: #2196F3; stroke-width: 0px;"/>
      <path d="M21.75,18.75c-.66-.57-1.35-1.1-1.96-1.72-.86-.87-.86-1.86-.08-2.59.75-.71,1.68-.69,2.52.13,1.68,1.65,3.34,3.31,4.99,4.99.89.91.89,1.76,0,2.67-1.64,1.68-3.31,3.34-4.99,4.99-.87.86-1.84.85-2.59.07-.7-.74-.68-1.68.15-2.52.61-.62,1.31-1.15,1.98-1.75-.53-.51-.94-.35-1.29-.35-5.97-.01-11.93,0-17.9,0-.32,0-.63.02-.95-.01C.68,22.55,0,21.81,0,20.9c0-.95.73-1.73,1.73-1.75,1.68-.03,3.37-.01,5.05-.01,4.53,0,9.05,0,13.58,0h1.14c.08-.13.17-.25.25-.38Z" style="fill: #2196F3; stroke-width: 0px;"/>
    </g>
  </g>
</svg>