<?xml version="1.0" encoding="UTF-8"?>
<svg id="Layer_2" data-name="Layer 2" xmlns="http://www.w3.org/2000/svg" viewBox="0 0 136.86 364.3">
  <g id="Layer_1-2" data-name="Layer 1">
    <path d="M15.36,183.03c0-43.59-.04-87.19.06-130.78.01-4.69-.58-8.05-5.22-10.95C1.31,35.74-1.82,25.97,1.01,16.68,4.12,6.51,12.39.13,23.29.09c30.2-.11,60.4-.13,90.6.01,10.77.05,19.05,6.67,22.04,16.91,2.71,9.26-.59,18.9-9.55,24.52-4.34,2.72-4.97,5.81-4.96,10.28.09,86.14.15,172.28.02,258.42-.05,30.96-23.4,54.26-53.58,54.09-28.29-.16-52.1-23-52.35-51.28-.39-43.33-.1-86.66-.1-129.99h-.05ZM31.38,242.92c0,26.17-.74,51.33.36,76.4.44,10.13,7.51,18.29,16.46,23.83,26.13,16.17,57.59-2,58.29-33.87.4-18.12.08-36.25.08-54.38,0-31.79.02-63.57-.03-95.36,0-3.44,1.24-7.76-4.83-7.74-22.33.09-44.66-.04-66.98.22-1.49.02-4.15,2.54-4.22,4-.41,8.32-.2,16.68-.2,26.14,6.55,0,12.24.05,17.93-.01,5.72-.06,12.21-.14,12.33,7.45.11,7.51-6.13,7.91-12.01,7.78-5.71-.13-11.43-.03-17.71-.03v30.15c4.67,0,8.84,0,13.02,0,12.79,0,17.67,2.09,16.78,7.89-1.56,10.13-9.97,7.08-16.34,7.48-4.17.26-8.36.05-12.93.05ZM30.29,45.97c0,29.19.06,57.49-.06,85.79-.02,5.21,3.14,5.09,6.76,5.08,20.74-.04,41.48-.23,62.21.11,6.01.1,7.56-1.91,7.5-7.68-.27-25.72-.1-51.45-.15-77.18,0-2-.4-3.99-.64-6.13H30.29ZM67.89,30.24c14.67,0,29.34-.03,44.01.02,4.99.02,9.12-1.32,9.33-7.08.23-6.32-4.15-7.72-9.44-7.72-28.81.01-57.63.02-86.44,0-5.21,0-9.8,1.11-9.73,7.44.07,6.26,4.6,7.39,9.84,7.36,14.15-.07,28.29-.02,42.44-.03Z" style="fill: #000; stroke-width: 0px;"/>
  </g>
</svg>